<svg xmlns="http://www.w3.org/2000/svg" width="500" height="260" viewBox="0 0 500 260">
  <title>C2P-Cache Figure 4(b): CCD cache sharing</title>
  <defs>
    <marker id="arr" markerWidth="7" markerHeight="7" refX="6" refY="3.5" orient="auto"><path d="M0,0 L7,3.5 L0,7 Z" fill="#20252a"/></marker>
    <style>.b{stroke:#29303a;stroke-width:1.3}.c{fill:#fafafa}.t{fill:#d8d7e8}.l2{fill:#73767d}.s{font:11px Georgia,serif;fill:#20252a}.m{font:14px Georgia,serif;fill:#20252a}.cap{font:700 14px Georgia,serif;fill:#20252a}.line{stroke:#20252a;stroke-width:1.4;fill:none;marker-end:url(#arr)}.bcast{stroke:#4fb4ad;stroke-width:2.2;fill:none;marker-end:url(#arr)}</style>
  </defs>
  <rect width="500" height="260" fill="white"/>
  <text x="250" y="27" text-anchor="middle" class="s">access from SM</text>
  <g class="b"><rect x="28" y="53" width="66" height="28" class="c"/><rect x="94" y="53" width="34" height="28" class="t"/><rect x="143" y="53" width="66" height="28" class="c"/><rect x="209" y="53" width="34" height="28" class="t"/><rect x="258" y="53" width="66" height="28" class="c"/><rect x="324" y="53" width="34" height="28" class="t"/><rect x="373" y="53" width="66" height="28" class="c"/><rect x="439" y="53" width="34" height="28" class="t"/></g>
  <g class="s" text-anchor="middle"><text x="61" y="72">cache</text><text x="111" y="72">tag</text><text x="176" y="72">cache</text><text x="226" y="72">tag</text><text x="291" y="72">cache</text><text x="341" y="72">tag</text><text x="406" y="72">cache</text><text x="456" y="72">tag</text></g>
  <rect x="210" y="101" width="78" height="42" rx="5" fill="#8ed8cf" class="b"/><text x="249" y="120" text-anchor="middle" class="s">2bit</text><text x="249" y="136" text-anchor="middle" class="s">counter</text>
  <path d="M111 81V101H210" class="line"/><path d="M249 143V154" class="line"/><rect x="208" y="156" width="84" height="31" class="b l2"/><text x="250" y="178" text-anchor="middle" fill="white" class="m">L2</text>
  <text x="289" y="154" class="s">miss</text><text x="305" y="115" class="s">hit</text><text x="384" y="110" class="s">broadcast</text>
  <path d="M288 114L341 81M288 114L456 81M288 114L226 81" class="bcast"/>
  <text x="250" y="230" text-anchor="middle" class="cap">(b) CCD [18] cache sharing</text>
</svg>
