<svg xmlns="http://www.w3.org/2000/svg" width="1600" height="640"><rect width="100%" height="100%" fill="white"/><text x="40" y="45" font-family="sans-serif" font-size="28">FIG1S: line reuse versus true sector temporal reuse</text>
<rect x="180" y="235.0" width="34" height="285.0" fill="#3182bd"/>
<rect x="222" y="520.0" width="34" height="0.0" fill="#756bb1"/>
<text x="218" y="550" text-anchor="middle" font-family="sans-serif" font-size="13">vectorAdd_4M</text>
<rect x="286" y="226.0" width="34" height="294.0" fill="#3182bd"/>
<rect x="328" y="483.8" width="34" height="36.2" fill="#756bb1"/>
<text x="324" y="550" text-anchor="middle" font-family="sans-serif" font-size="13">convolutionSeparable</text>
<rect x="392" y="223.7" width="34" height="296.3" fill="#3182bd"/>
<rect x="434" y="474.8" width="34" height="45.2" fill="#756bb1"/>
<text x="430" y="550" text-anchor="middle" font-family="sans-serif" font-size="13">sad</text>
<rect x="498" y="222.6" width="34" height="297.4" fill="#3182bd"/>
<rect x="540" y="469.8" width="34" height="50.2" fill="#756bb1"/>
<text x="536" y="550" text-anchor="middle" font-family="sans-serif" font-size="13">spmv</text>
<rect x="604" y="188.7" width="34" height="331.3" fill="#3182bd"/>
<rect x="646" y="334.9" width="34" height="185.1" fill="#756bb1"/>
<text x="642" y="550" text-anchor="middle" font-family="sans-serif" font-size="13">FWT_7_21</text>
<rect x="710" y="181.5" width="34" height="338.5" fill="#3182bd"/>
<rect x="752" y="306.1" width="34" height="213.9" fill="#756bb1"/>
<text x="748" y="550" text-anchor="middle" font-family="sans-serif" font-size="13">cfd_097k</text>
<rect x="816" y="228.2" width="34" height="291.8" fill="#3182bd"/>
<rect x="858" y="492.6" width="34" height="27.4" fill="#756bb1"/>
<text x="854" y="550" text-anchor="middle" font-family="sans-serif" font-size="13">dwt2d</text>
<rect x="922" y="175.8" width="34" height="344.2" fill="#3182bd"/>
<rect x="964" y="256.7" width="34" height="263.3" fill="#756bb1"/>
<text x="960" y="550" text-anchor="middle" font-family="sans-serif" font-size="13">btree</text>
<rect x="1028" y="140.5" width="34" height="379.5" fill="#3182bd"/>
<rect x="1070" y="142.0" width="34" height="378.0" fill="#756bb1"/>
<text x="1066" y="550" text-anchor="middle" font-family="sans-serif" font-size="13">gemm</text>
<rect x="1134" y="235.0" width="34" height="285.0" fill="#3182bd"/>
<rect x="1176" y="520.0" width="34" height="0.0" fill="#756bb1"/>
<text x="1172" y="550" text-anchor="middle" font-family="sans-serif" font-size="13">BlackScholes</text>
<rect x="1240" y="232.2" width="34" height="287.8" fill="#3182bd"/>
<rect x="1282" y="480.1" width="34" height="39.9" fill="#756bb1"/>
<text x="1278" y="550" text-anchor="middle" font-family="sans-serif" font-size="13">mergeSort</text>
<rect x="1346" y="220.0" width="34" height="300.0" fill="#3182bd"/>
<rect x="1388" y="460.0" width="34" height="60.0" fill="#756bb1"/>
<text x="1384" y="550" text-anchor="middle" font-family="sans-serif" font-size="13">transpose</text>
<text x="180" y="600" font-family="sans-serif" font-size="16" fill="#3182bd">line-level reuse fraction</text><text x="500" y="600" font-family="sans-serif" font-size="16" fill="#756bb1">true sector temporal-reuse fraction</text></svg>