<svg xmlns="http://www.w3.org/2000/svg" width="750" height="440" viewBox="0 0 750 440">
  <title>C2P-Cache Figure 6: logical view of matrix matching</title>
  <defs>
    <marker id="a" markerWidth="8" markerHeight="8" refX="7" refY="3.5" orient="auto"><path d="M0 0L8 3.5L0 7z" fill="#101820"/></marker>
    <style>.title{font:700 25px 'Latin Modern Roman',serif;fill:#111}.dim{font:24px 'Latin Modern Roman',serif;fill:#111}.n{font:23px 'Latin Modern Roman',serif;fill:#111;text-anchor:middle}.grid{fill:#fff;stroke:#101820;stroke-width:1.3}.line{stroke:#101820;stroke-width:1.15;fill:none}.hi{fill:#cbd2f7}.hit{fill:#8b3baa}.sym{font:48px 'Latin Modern Roman',serif;fill:#111}.cap{font:700 25px 'Latin Modern Roman',serif;fill:#111}</style>
  </defs>
  <rect width="750" height="440" fill="white"/>
  <text x="150" y="85" text-anchor="middle" class="title">Access Matrix</text><text x="150" y="118" text-anchor="middle" class="dim">Dimensions: (0~#SM) × m</text>
  <g transform="translate(10,144)"><rect width="277" height="137" class="grid"/><rect y="34.25" width="277" height="34.25" class="hi"/><path d="M34.625 0V137M69.25 0V137M103.875 0V137M138.5 0V137M173.125 0V137M207.75 0V137M242.375 0V137M0 34.25H277M0 68.5H277M0 102.75H277" class="line"/>
    <g class="n"><text x="17" y="26">1</text><text x="52" y="26">0</text><text x="87" y="26">0</text><text x="121" y="26">1</text><text x="156" y="26">0</text><text x="191" y="26">0</text><text x="225" y="26">1</text><text x="260" y="26">0</text><text x="17" y="60">0</text><text x="52" y="60">1</text><text x="87" y="60">0</text><text x="121" y="60">0</text><text x="156" y="60">0</text><text x="191" y="60">0</text><text x="225" y="60">0</text><text x="260" y="60">0</text><text x="17" y="94">0</text><text x="52" y="94">0</text><text x="87" y="94">0</text><text x="121" y="94">1</text><text x="156" y="94">0</text><text x="191" y="94">0</text><text x="225" y="94">0</text><text x="260" y="94">1</text><text x="17" y="128">0</text><text x="52" y="128">0</text><text x="87" y="128">1</text><text x="121" y="128">0</text><text x="156" y="128">0</text><text x="191" y="128">1</text><text x="225" y="128">0</text><text x="260" y="128">0</text></g>
  </g>
  <text x="295" y="232" class="sym">×</text>
  <text x="409" y="35" text-anchor="middle" class="title">Snapshot Matrix</text><text x="409" y="68" text-anchor="middle" class="dim">Dimensions: m × #SM</text>
  <g transform="translate(341,76)"><rect width="136" height="273" class="grid"/><rect x="68" width="34" height="273" class="hi"/><path d="M34 0V273M68 0V273M102 0V273M0 34.125H136M0 68.25H136M0 102.375H136M0 136.5H136M0 170.625H136M0 204.75H136M0 238.875H136" class="line"/>
    <g class="n"><text x="17" y="26">1</text><text x="51" y="26">0</text><text x="85" y="26">0</text><text x="119" y="26">0</text><text x="17" y="60">0</text><text x="51" y="60">0</text><text x="85" y="60">1</text><text x="119" y="60">0</text><text x="17" y="94">0</text><text x="51" y="94">0</text><text x="85" y="94">1</text><text x="119" y="94">1</text><text x="17" y="128">1</text><text x="51" y="128">1</text><text x="85" y="128">0</text><text x="119" y="128">1</text><text x="17" y="162">1</text><text x="51" y="162">1</text><text x="85" y="162">0</text><text x="119" y="162">1</text><text x="17" y="196">0</text><text x="51" y="196">0</text><text x="85" y="196">0</text><text x="119" y="196">1</text><text x="17" y="230">0</text><text x="51" y="230">1</text><text x="85" y="230">1</text><text x="119" y="230">1</text><text x="17" y="264">1</text><text x="51" y="264">0</text><text x="85" y="264">1</text><text x="119" y="264">0</text></g>
  </g>
  <path d="M494 213H552" stroke="#101820" stroke-width="2.2" fill="none" marker-end="url(#a)"/>
  <text x="638" y="64" text-anchor="middle" class="title">Result Matrix</text><text x="638" y="96" text-anchor="middle" class="dim">Dimensions:</text><text x="638" y="127" text-anchor="middle" class="dim">(0~#SM) × #SM</text>
  <g transform="translate(568,144)"><rect width="139" height="137" class="grid"/><rect x="69.5" y="34.25" width="34.75" height="34.25" class="hit"/><path d="M34.75 0V137M69.5 0V137M104.25 0V137M0 34.25H139M0 68.5H139M0 102.75H139" class="line"/><g class="n"><text x="17" y="26">0</text><text x="52" y="26">0</text><text x="87" y="26">0</text><text x="122" y="26">0</text><text x="17" y="60">0</text><text x="52" y="60">0</text><text x="87" y="60" fill="white">1</text><text x="122" y="60">0</text><text x="17" y="94">1</text><text x="52" y="94">0</text><text x="87" y="94">0</text><text x="122" y="94">0</text><text x="17" y="128">0</text><text x="52" y="128">0</text><text x="87" y="128">0</text><text x="122" y="128">1</text></g></g>
  <text x="2" y="394" class="cap">Figure 6: Logical view of C2P-Cache matching among the</text><text x="2" y="425" class="cap">access matrix, snapshot matrix, and result matrix.</text>
</svg>
