<svg xmlns="http://www.w3.org/2000/svg" width="405" height="270" viewBox="0 0 405 270">
  <title>C2P-Cache Figure 4(c): ATA cache sharing</title>
  <defs>
    <marker id="a" markerWidth="7" markerHeight="7" refX="6" refY="3.5" orient="auto"><path d="M0 0L7 3.5L0 7z" fill="#203c9a"/></marker><marker id="k" markerWidth="7" markerHeight="7" refX="6" refY="3.5" orient="auto"><path d="M0 0L7 3.5L0 7z" fill="#101820"/></marker>
    <style>.o{stroke:#172060;stroke-width:1.15}.cache{fill:#fafafa}.tag{fill:#e2d8fc}.l2{fill:#707682}.t{font:16px 'Latin Modern Roman',serif;fill:#111}.s{font:14px 'Latin Modern Roman',serif;fill:#111}.cap{font:700 18px 'Latin Modern Roman',serif;fill:#111}.barr{stroke:#203c9a;stroke-width:1.7;fill:none;marker-end:url(#a)}.karr{stroke:#101820;stroke-width:1.6;fill:none;marker-end:url(#k)}</style>
  </defs>
  <rect width="405" height="270" fill="white"/>
  <text x="218" y="39" text-anchor="middle" class="s">aggregated tag array</text>
  <rect x="169" y="50" width="111" height="37" class="o tag"/><rect x="178" y="60" width="28" height="21" class="o tag"/><rect x="206" y="60" width="28" height="21" class="o tag"/><rect x="234" y="60" width="28" height="21" class="o tag"/>
  <g class="t" text-anchor="middle"><text x="192" y="75">tag</text><text x="220" y="75">tag</text><text x="248" y="75">tag</text></g>
  <path d="M307 34L280 55M307 41L280 62M307 48L280 69M307 55L280 76" class="karr"/><text x="317" y="49" class="s">accesses</text><text x="317" y="66" class="s">from SMs</text>
  <rect x="39" y="125" width="76" height="28" class="o cache"/><rect x="160" y="125" width="76" height="28" class="o cache"/><rect x="281" y="125" width="76" height="28" class="o cache"/>
  <g class="t" text-anchor="middle"><text x="77" y="144">cache</text><text x="198" y="144">cache</text><text x="319" y="144">cache</text></g>
  <text x="96" y="114" class="s">tag hit</text><path d="M173 87L79 125M212 87L198 125M252 87L317 125" class="barr"/>
  <rect x="127" y="181" width="109" height="28" class="o l2"/><text x="181.5" y="201" text-anchor="middle" fill="white" class="t">L2</text>
  <path d="M198 153V180M236 195H255V87" class="karr"/><text x="264" y="180" class="s">L1 miss</text>
  <text x="203" y="248" text-anchor="middle" class="cap">(c) ATA [70] cache sharing</text>
</svg>
