<svg xmlns="http://www.w3.org/2000/svg" width="2200" height="700"><rect width="100%" height="100%" fill="white"/><text x="40" y="45" font-family="sans-serif" font-size="28">FIG2 DRAFT: L2 structural blocking breakdown (WBUF=8)</text>
<rect x="150.0" y="569.0" width="72" height="1.0" fill="#e41a1c"/>
<rect x="150.0" y="569.0" width="72" height="0.0" fill="#377eb8"/>
<rect x="150.0" y="293.6" width="72" height="275.4" fill="#4daf4a"/>
<rect x="150.0" y="258.6" width="72" height="35.0" fill="#984ea3"/>
<rect x="150.0" y="258.2" width="72" height="0.4" fill="#999999"/>
<text x="186.0" y="250.2" text-anchor="middle" font-family="sans-serif" font-size="12">69.3%</text><text x="186.0" y="590" font-family="sans-serif" font-size="10" transform="rotate(-55 186.0 590)">scan</text>
<rect x="296.2" y="570.0" width="72" height="0.0" fill="#e41a1c"/>
<rect x="296.2" y="570.0" width="72" height="0.0" fill="#377eb8"/>
<rect x="296.2" y="327.1" width="72" height="242.9" fill="#4daf4a"/>
<rect x="296.2" y="315.7" width="72" height="11.5" fill="#984ea3"/>
<rect x="296.2" y="315.7" width="72" height="0.0" fill="#999999"/>
<text x="332.2" y="307.7" text-anchor="middle" font-family="sans-serif" font-size="12">56.5%</text><text x="332.2" y="590" font-family="sans-serif" font-size="10" transform="rotate(-55 332.2 590)">vectorAdd_4M</text>
<rect x="442.3" y="570.0" width="72" height="0.0" fill="#e41a1c"/>
<rect x="442.3" y="513.9" width="72" height="56.1" fill="#377eb8"/>
<rect x="442.3" y="411.8" width="72" height="102.1" fill="#4daf4a"/>
<rect x="442.3" y="398.6" width="72" height="13.2" fill="#984ea3"/>
<rect x="442.3" y="398.6" width="72" height="0.0" fill="#999999"/>
<text x="478.3" y="390.6" text-anchor="middle" font-family="sans-serif" font-size="12">38.1%</text><text x="478.3" y="590" font-family="sans-serif" font-size="10" transform="rotate(-55 478.3 590)">convolutionSeparable</text>
<rect x="588.5" y="570.0" width="72" height="0.0" fill="#e41a1c"/>
<rect x="588.5" y="556.4" width="72" height="13.6" fill="#377eb8"/>
<rect x="588.5" y="370.2" width="72" height="186.3" fill="#4daf4a"/>
<rect x="588.5" y="370.2" width="72" height="0.0" fill="#984ea3"/>
<rect x="588.5" y="370.2" width="72" height="0.0" fill="#999999"/>
<text x="624.5" y="362.2" text-anchor="middle" font-family="sans-serif" font-size="12">44.4%</text><text x="624.5" y="590" font-family="sans-serif" font-size="10" transform="rotate(-55 624.5 590)">spmv</text>
<rect x="734.6" y="570.0" width="72" height="0.0" fill="#e41a1c"/>
<rect x="734.6" y="570.0" width="72" height="0.0" fill="#377eb8"/>
<rect x="734.6" y="382.8" width="72" height="187.2" fill="#4daf4a"/>
<rect x="734.6" y="321.1" width="72" height="61.7" fill="#984ea3"/>
<rect x="734.6" y="321.1" width="72" height="0.0" fill="#999999"/>
<text x="770.6" y="313.1" text-anchor="middle" font-family="sans-serif" font-size="12">55.3%</text><text x="770.6" y="590" font-family="sans-serif" font-size="10" transform="rotate(-55 770.6 590)">FWT_7_21</text>
<rect x="880.8" y="570.0" width="72" height="0.0" fill="#e41a1c"/>
<rect x="880.8" y="570.0" width="72" height="0.0" fill="#377eb8"/>
<rect x="880.8" y="570.0" width="72" height="0.0" fill="#4daf4a"/>
<rect x="880.8" y="560.8" width="72" height="9.2" fill="#984ea3"/>
<rect x="880.8" y="560.8" width="72" height="0.0" fill="#999999"/>
<text x="916.8" y="552.8" text-anchor="middle" font-family="sans-serif" font-size="12">2.0%</text><text x="916.8" y="590" font-family="sans-serif" font-size="10" transform="rotate(-55 916.8 590)">cfd_097k</text>
<rect x="1026.9" y="570.0" width="72" height="0.0" fill="#e41a1c"/>
<rect x="1026.9" y="570.0" width="72" height="0.0" fill="#377eb8"/>
<rect x="1026.9" y="570.0" width="72" height="0.0" fill="#4daf4a"/>
<rect x="1026.9" y="535.8" width="72" height="34.2" fill="#984ea3"/>
<rect x="1026.9" y="535.8" width="72" height="0.0" fill="#999999"/>
<text x="1062.9" y="527.8" text-anchor="middle" font-family="sans-serif" font-size="12">7.6%</text><text x="1062.9" y="590" font-family="sans-serif" font-size="10" transform="rotate(-55 1062.9 590)">dwt2d</text>
<rect x="1173.1" y="570.0" width="72" height="0.0" fill="#e41a1c"/>
<rect x="1173.1" y="570.0" width="72" height="0.0" fill="#377eb8"/>
<rect x="1173.1" y="570.0" width="72" height="0.0" fill="#4daf4a"/>
<rect x="1173.1" y="570.0" width="72" height="0.0" fill="#984ea3"/>
<rect x="1173.1" y="570.0" width="72" height="0.0" fill="#999999"/>
<text x="1209.1" y="562.0" text-anchor="middle" font-family="sans-serif" font-size="12">0.0%</text><text x="1209.1" y="590" font-family="sans-serif" font-size="10" transform="rotate(-55 1209.1 590)">sad</text>
<rect x="1319.2" y="570.0" width="72" height="0.0" fill="#e41a1c"/>
<rect x="1319.2" y="569.4" width="72" height="0.6" fill="#377eb8"/>
<rect x="1319.2" y="569.4" width="72" height="0.0" fill="#4daf4a"/>
<rect x="1319.2" y="569.4" width="72" height="0.0" fill="#984ea3"/>
<rect x="1319.2" y="569.4" width="72" height="0.0" fill="#999999"/>
<text x="1355.2" y="561.4" text-anchor="middle" font-family="sans-serif" font-size="12">0.1%</text><text x="1355.2" y="590" font-family="sans-serif" font-size="10" transform="rotate(-55 1355.2 590)">btree</text>
<rect x="1465.4" y="570.0" width="72" height="0.0" fill="#e41a1c"/>
<rect x="1465.4" y="570.0" width="72" height="0.0" fill="#377eb8"/>
<rect x="1465.4" y="570.0" width="72" height="0.0" fill="#4daf4a"/>
<rect x="1465.4" y="570.0" width="72" height="0.0" fill="#984ea3"/>
<rect x="1465.4" y="570.0" width="72" height="0.0" fill="#999999"/>
<text x="1501.4" y="562.0" text-anchor="middle" font-family="sans-serif" font-size="12">0.0%</text><text x="1501.4" y="590" font-family="sans-serif" font-size="10" transform="rotate(-55 1501.4 590)">gemm</text>
<rect x="1611.5" y="570.0" width="72" height="0.0" fill="#e41a1c"/>
<rect x="1611.5" y="570.0" width="72" height="0.0" fill="#377eb8"/>
<rect x="1611.5" y="570.0" width="72" height="0.0" fill="#4daf4a"/>
<rect x="1611.5" y="570.0" width="72" height="0.0" fill="#984ea3"/>
<rect x="1611.5" y="570.0" width="72" height="0.0" fill="#999999"/>
<text x="1647.5" y="562.0" text-anchor="middle" font-family="sans-serif" font-size="12">0.0%</text><text x="1647.5" y="590" font-family="sans-serif" font-size="10" transform="rotate(-55 1647.5 590)">BlackScholes</text>
<rect x="1757.7" y="570.0" width="72" height="0.0" fill="#e41a1c"/>
<rect x="1757.7" y="570.0" width="72" height="0.0" fill="#377eb8"/>
<rect x="1757.7" y="570.0" width="72" height="0.0" fill="#4daf4a"/>
<rect x="1757.7" y="570.0" width="72" height="0.0" fill="#984ea3"/>
<rect x="1757.7" y="570.0" width="72" height="0.0" fill="#999999"/>
<text x="1793.7" y="562.0" text-anchor="middle" font-family="sans-serif" font-size="12">0.0%</text><text x="1793.7" y="590" font-family="sans-serif" font-size="10" transform="rotate(-55 1793.7 590)">mergeSort</text>
<rect x="1903.8" y="570.0" width="72" height="0.0" fill="#e41a1c"/>
<rect x="1903.8" y="570.0" width="72" height="0.0" fill="#377eb8"/>
<rect x="1903.8" y="570.0" width="72" height="0.0" fill="#4daf4a"/>
<rect x="1903.8" y="570.0" width="72" height="0.0" fill="#984ea3"/>
<rect x="1903.8" y="570.0" width="72" height="0.0" fill="#999999"/>
<text x="1939.8" y="562.0" text-anchor="middle" font-family="sans-serif" font-size="12">0.0%</text><text x="1939.8" y="590" font-family="sans-serif" font-size="10" transform="rotate(-55 1939.8 590)">transpose</text>
<text x="70" y="645" font-family="sans-serif" font-size="15">segments are fractions of eligible miss-admission cycles; total bar height and label = overall blocking rate. SET_ASSOC / MSHR_META / MISSQ_LOWER / WB_PATH / OTHER.</text></svg>