<svg xmlns="http://www.w3.org/2000/svg" width="1150" height="515" viewBox="0 0 1150 515">
<style>text{font-family:Arial,sans-serif;fill:#172033}.small{font-size:11px}.axis{stroke:#667085}.grid{stroke:#d0d5dd}.base{fill:#98a2b3}.io{fill:#f79009}.oo{fill:#2e90fa}</style>
<text x="66" y="28" font-size="19" font-weight="700">FAST12 normalized cycle count (Base = 1.0)</text>
<text x="66" y="48" class="small">Lower is better. ATAX, BICG, and GESUMMV IO regressions are retained.</text>
<line class="grid" x1="66" x2="1126" y1="419.0" y2="419.0"/><text class="small" x="10" y="423.0">0.00</text>
<line class="grid" x1="66" x2="1126" y1="332.2" y2="332.2"/><text class="small" x="10" y="336.2">0.29</text>
<line class="grid" x1="66" x2="1126" y1="245.5" y2="245.5"/><text class="small" x="10" y="249.5">0.58</text>
<line class="grid" x1="66" x2="1126" y1="158.8" y2="158.8"/><text class="small" x="10" y="162.8">0.88</text>
<line class="grid" x1="66" x2="1126" y1="72.0" y2="72.0"/><text class="small" x="10" y="76.0">1.17</text>
<rect class="base" x="71.0" y="121.6" width="7" height="297.4"/>
<rect class="io" x="79.0" y="119.5" width="7" height="299.5"/>
<rect class="oo" x="87.0" y="256.1" width="7" height="162.9"/>
<text class="small" transform="translate(93.0,430) rotate(55)">ATAX</text>
<rect class="base" x="159.3" y="121.6" width="7" height="297.4"/>
<rect class="io" x="167.3" y="103.3" width="7" height="315.7"/>
<rect class="oo" x="175.3" y="260.3" width="7" height="158.7"/>
<text class="small" transform="translate(181.3,430) rotate(55)">BICG</text>
<rect class="base" x="247.7" y="121.6" width="7" height="297.4"/>
<rect class="io" x="255.7" y="97.7" width="7" height="321.3"/>
<rect class="oo" x="263.7" y="200.8" width="7" height="218.2"/>
<text class="small" transform="translate(269.7,430) rotate(55)">GESUMMV</text>
<rect class="base" x="336.0" y="121.6" width="7" height="297.4"/>
<rect class="io" x="344.0" y="252.7" width="7" height="166.3"/>
<rect class="oo" x="352.0" y="263.0" width="7" height="156.0"/>
<text class="small" transform="translate(358.0,430) rotate(55)">GEMM</text>
<rect class="base" x="424.3" y="121.6" width="7" height="297.4"/>
<rect class="io" x="432.3" y="336.0" width="7" height="83.0"/>
<rect class="oo" x="440.3" y="340.5" width="7" height="78.5"/>
<text class="small" transform="translate(446.3,430) rotate(55)">2DConvolution</text>
<rect class="base" x="512.7" y="121.6" width="7" height="297.4"/>
<rect class="io" x="520.7" y="222.7" width="7" height="196.3"/>
<rect class="oo" x="528.7" y="280.1" width="7" height="138.9"/>
<text class="small" transform="translate(534.7,430) rotate(55)">Btree</text>
<rect class="base" x="601.0" y="121.6" width="7" height="297.4"/>
<rect class="io" x="609.0" y="210.4" width="7" height="208.6"/>
<rect class="oo" x="617.0" y="216.2" width="7" height="202.8"/>
<text class="small" transform="translate(623.0,430) rotate(55)">DWT2D</text>
<rect class="base" x="689.3" y="121.6" width="7" height="297.4"/>
<rect class="io" x="697.3" y="150.6" width="7" height="268.4"/>
<rect class="oo" x="705.3" y="150.4" width="7" height="268.6"/>
<text class="small" transform="translate(711.3,430) rotate(55)">Gaussian</text>
<rect class="base" x="777.7" y="121.6" width="7" height="297.4"/>
<rect class="io" x="785.7" y="260.3" width="7" height="158.7"/>
<rect class="oo" x="793.7" y="263.0" width="7" height="156.0"/>
<text class="small" transform="translate(799.7,430) rotate(55)">Hotspot1</text>
<rect class="base" x="866.0" y="121.6" width="7" height="297.4"/>
<rect class="io" x="874.0" y="127.6" width="7" height="291.4"/>
<rect class="oo" x="882.0" y="128.6" width="7" height="290.4"/>
<text class="small" transform="translate(888.0,430) rotate(55)">LUD</text>
<rect class="base" x="954.3" y="121.6" width="7" height="297.4"/>
<rect class="io" x="962.3" y="159.5" width="7" height="259.5"/>
<rect class="oo" x="970.3" y="159.1" width="7" height="259.9"/>
<text class="small" transform="translate(976.3,430) rotate(55)">NN</text>
<rect class="base" x="1042.7" y="121.6" width="7" height="297.4"/>
<rect class="io" x="1050.7" y="126.6" width="7" height="292.4"/>
<rect class="oo" x="1058.7" y="125.9" width="7" height="293.1"/>
<text class="small" transform="translate(1064.7,430) rotate(55)">MRI-Q</text>
<line class="axis" x1="66" x2="1126" y1="419" y2="419"/>
<rect class="base" x="795" y="31" width="12" height="12"/><text class="small" x="812" y="41">Base</text>
<rect class="io" x="864" y="31" width="12" height="12"/><text class="small" x="881" y="41">IO</text>
<rect class="oo" x="920" y="31" width="12" height="12"/><text class="small" x="937" y="41">OO</text>
</svg>