<svg xmlns="http://www.w3.org/2000/svg" width="1320" height="650" viewBox="0 0 1320 650">
<rect width="100%" height="100%" fill="white"/>
<text x="660" y="43.6" text-anchor="middle" font-family="DejaVu Sans, sans-serif" font-size="21" fill="#111111">A2. L2 resource occupancy / pressure proxy (hotspot slice)</text>
<line x1="105" y1="545.0" x2="1250" y2="545.0" stroke="#777777" stroke-width="1" stroke-dasharray="4 4"/>
<text x="94" y="550.4" text-anchor="end" font-family="DejaVu Sans, sans-serif" font-size="15" fill="#111111">0</text>
<line x1="105" y1="461.1904761904762" x2="1250" y2="461.1904761904762" stroke="#777777" stroke-width="1" stroke-dasharray="4 4"/>
<text x="94" y="466.6" text-anchor="end" font-family="DejaVu Sans, sans-serif" font-size="15" fill="#111111">20</text>
<line x1="105" y1="377.3809523809524" x2="1250" y2="377.3809523809524" stroke="#777777" stroke-width="1" stroke-dasharray="4 4"/>
<text x="94" y="382.8" text-anchor="end" font-family="DejaVu Sans, sans-serif" font-size="15" fill="#111111">40</text>
<line x1="105" y1="293.57142857142856" x2="1250" y2="293.57142857142856" stroke="#777777" stroke-width="1" stroke-dasharray="4 4"/>
<text x="94" y="299.0" text-anchor="end" font-family="DejaVu Sans, sans-serif" font-size="15" fill="#111111">60</text>
<line x1="105" y1="209.76190476190476" x2="1250" y2="209.76190476190476" stroke="#777777" stroke-width="1" stroke-dasharray="4 4"/>
<text x="94" y="215.2" text-anchor="end" font-family="DejaVu Sans, sans-serif" font-size="15" fill="#111111">80</text>
<line x1="105" y1="125.95238095238096" x2="1250" y2="125.95238095238096" stroke="#777777" stroke-width="1" stroke-dasharray="4 4"/>
<text x="94" y="131.4" text-anchor="end" font-family="DejaVu Sans, sans-serif" font-size="15" fill="#111111">100</text>
<line x1="105" y1="105" x2="105" y2="545" stroke="#000000" stroke-width="2"/>
<line x1="105" y1="545" x2="1250" y2="545" stroke="#000000" stroke-width="2"/>
<rect x="136.78571428571428" y="453.3333333333333" width="25.0" height="91.66666666666669" fill="#4C78A8" stroke="#333333" stroke-width="1"/>
<rect x="300.3571428571429" y="125.95238095238096" width="25.0" height="419.04761904761904" fill="#4C78A8" stroke="#333333" stroke-width="1"/>
<rect x="463.92857142857144" y="168.51190476190476" width="25.0" height="376.48809523809524" fill="#4C78A8" stroke="#333333" stroke-width="1"/>
<rect x="627.5" y="233.98809523809524" width="25.0" height="311.01190476190476" fill="#4C78A8" stroke="#333333" stroke-width="1"/>
<rect x="791.0714285714287" y="279.8214285714286" width="25.0" height="265.1785714285714" fill="#4C78A8" stroke="#333333" stroke-width="1"/>
<rect x="954.6428571428572" y="423.8690476190476" width="25.0" height="121.13095238095241" fill="#4C78A8" stroke="#333333" stroke-width="1"/>
<rect x="1118.2142857142858" y="495.8928571428571" width="25.0" height="49.10714285714289" fill="#4C78A8" stroke="#333333" stroke-width="1"/>
<rect x="161.78571428571428" y="453.3333333333333" width="25.0" height="91.66666666666669" fill="#F2CF5B" stroke="#333333" stroke-width="1"/>
<rect x="325.3571428571429" y="125.95238095238096" width="25.0" height="419.04761904761904" fill="#F2CF5B" stroke="#333333" stroke-width="1"/>
<rect x="488.92857142857144" y="165.23809523809524" width="25.0" height="379.76190476190476" fill="#F2CF5B" stroke="#333333" stroke-width="1"/>
<rect x="652.5" y="233.98809523809524" width="25.0" height="311.01190476190476" fill="#F2CF5B" stroke="#333333" stroke-width="1"/>
<rect x="816.0714285714287" y="279.8214285714286" width="25.0" height="265.1785714285714" fill="#F2CF5B" stroke="#333333" stroke-width="1"/>
<rect x="979.6428571428572" y="420.5952380952381" width="25.0" height="124.40476190476193" fill="#F2CF5B" stroke="#333333" stroke-width="1"/>
<rect x="1143.2142857142858" y="495.8928571428571" width="25.0" height="49.10714285714289" fill="#F2CF5B" stroke="#333333" stroke-width="1"/>
<rect x="186.78571428571428" y="545.0" width="25.0" height="0.0" fill="#59A14F" stroke="#333333" stroke-width="1"/>
<rect x="350.3571428571429" y="417.32142857142856" width="25.0" height="127.67857142857144" fill="#59A14F" stroke="#333333" stroke-width="1"/>
<rect x="513.9285714285714" y="358.3928571428571" width="25.0" height="186.6071428571429" fill="#59A14F" stroke="#333333" stroke-width="1"/>
<rect x="677.5" y="224.16666666666669" width="25.0" height="320.8333333333333" fill="#59A14F" stroke="#333333" stroke-width="1"/>
<rect x="841.0714285714287" y="522.0833333333334" width="25.0" height="22.91666666666663" fill="#59A14F" stroke="#333333" stroke-width="1"/>
<rect x="1004.6428571428572" y="545.0" width="25.000000000000114" height="0.0" fill="#59A14F" stroke="#333333" stroke-width="1"/>
<rect x="1168.2142857142858" y="545.0" width="25.0" height="0.0" fill="#59A14F" stroke="#333333" stroke-width="1"/>
<rect x="211.78571428571428" y="387.8571428571429" width="25.0" height="157.1428571428571" fill="#B279A2" stroke="#333333" stroke-width="1"/>
<rect x="375.3571428571429" y="211.0714285714286" width="25.0" height="333.9285714285714" fill="#B279A2" stroke="#333333" stroke-width="1"/>
<rect x="538.9285714285714" y="545.0" width="25.0" height="0.0" fill="#B279A2" stroke="#333333" stroke-width="1"/>
<rect x="702.5" y="184.8809523809524" width="25.0" height="360.1190476190476" fill="#B279A2" stroke="#333333" stroke-width="1"/>
<rect x="866.0714285714287" y="371.48809523809524" width="25.0" height="173.51190476190476" fill="#B279A2" stroke="#333333" stroke-width="1"/>
<rect x="1029.6428571428573" y="450.0595238095238" width="25.0" height="94.9404761904762" fill="#B279A2" stroke="#333333" stroke-width="1"/>
<rect x="1193.2142857142858" y="545.0" width="25.0" height="0.0" fill="#B279A2" stroke="#333333" stroke-width="1"/>
<text x="186.78571428571428" y="578.4" text-anchor="middle" font-family="DejaVu Sans, sans-serif" font-size="15" fill="#111111" transform="rotate(19 186.78571428571428 573)">dwt2d</text>
<text x="350.3571428571429" y="578.4" text-anchor="middle" font-family="DejaVu Sans, sans-serif" font-size="15" fill="#111111" transform="rotate(19 350.3571428571429 573)">convolutionSeparable</text>
<text x="513.9285714285714" y="578.4" text-anchor="middle" font-family="DejaVu Sans, sans-serif" font-size="15" fill="#111111" transform="rotate(19 513.9285714285714 573)">spmv</text>
<text x="677.5" y="578.4" text-anchor="middle" font-family="DejaVu Sans, sans-serif" font-size="15" fill="#111111" transform="rotate(19 677.5 573)">scan</text>
<text x="841.0714285714287" y="578.4" text-anchor="middle" font-family="DejaVu Sans, sans-serif" font-size="15" fill="#111111" transform="rotate(19 841.0714285714287 573)">FWT_7_21</text>
<text x="1004.6428571428572" y="578.4" text-anchor="middle" font-family="DejaVu Sans, sans-serif" font-size="15" fill="#111111" transform="rotate(19 1004.6428571428572 573)">cfd_097k</text>
<text x="1168.2142857142858" y="578.4" text-anchor="middle" font-family="DejaVu Sans, sans-serif" font-size="15" fill="#111111" transform="rotate(19 1168.2142857142858 573)">btree</text>
<text x="28" y="330.4" text-anchor="middle" font-family="DejaVu Sans, sans-serif" font-size="15" fill="#111111" transform="rotate(-90 28 325.0)">Occupancy / pressure proxy (%)</text>
<rect x="275" y="65" width="18" height="18" fill="#4C78A8" stroke="#333333" stroke-width="1"/>
<text x="300" y="79.4" text-anchor="start" font-family="DejaVu Sans, sans-serif" font-size="15" fill="#111111">Set-reservation</text>
<rect x="490" y="65" width="18" height="18" fill="#F2CF5B" stroke="#333333" stroke-width="1"/>
<text x="515" y="79.4" text-anchor="start" font-family="DejaVu Sans, sans-serif" font-size="15" fill="#111111">MSHR-entry</text>
<rect x="705" y="65" width="18" height="18" fill="#59A14F" stroke="#333333" stroke-width="1"/>
<text x="730" y="79.4" text-anchor="start" font-family="DejaVu Sans, sans-serif" font-size="15" fill="#111111">MissQ</text>
<rect x="920" y="65" width="18" height="18" fill="#B279A2" stroke="#333333" stroke-width="1"/>
<text x="945" y="79.4" text-anchor="start" font-family="DejaVu Sans, sans-serif" font-size="15" fill="#111111">WB-path proxy (WAD)</text>
</svg>
