<svg xmlns="http://www.w3.org/2000/svg" width="1780" height="820" viewBox="0 0 1780 820"><rect width="100%" height="100%" fill="white"/>
<rect x="130" y="27" width="14" height="14" fill="#1f5a85" stroke="#333" stroke-width="0.5"/><text x="150" y="38" font-family="sans-serif" font-size="12">&lt;=8</text>
<rect x="270" y="27" width="14" height="14" fill="#2d78a8" stroke="#333" stroke-width="0.5"/><text x="290" y="38" font-family="sans-serif" font-size="12">9-16</text>
<rect x="410" y="27" width="14" height="14" fill="#4d97bc" stroke="#333" stroke-width="0.5"/><text x="430" y="38" font-family="sans-serif" font-size="12">17-32</text>
<rect x="550" y="27" width="14" height="14" fill="#77b3ca" stroke="#333" stroke-width="0.5"/><text x="570" y="38" font-family="sans-serif" font-size="12">33-64</text>
<rect x="690" y="27" width="14" height="14" fill="#9bc9d6" stroke="#333" stroke-width="0.5"/><text x="710" y="38" font-family="sans-serif" font-size="12">65-128</text>
<rect x="830" y="27" width="14" height="14" fill="#c1d9da" stroke="#333" stroke-width="0.5"/><text x="850" y="38" font-family="sans-serif" font-size="12">129-256</text>
<rect x="970" y="27" width="14" height="14" fill="#eadba6" stroke="#333" stroke-width="0.5"/><text x="990" y="38" font-family="sans-serif" font-size="12">257-512</text>
<rect x="1110" y="27" width="14" height="14" fill="#f4be72" stroke="#333" stroke-width="0.5"/><text x="1130" y="38" font-family="sans-serif" font-size="12">513-1024</text>
<rect x="1250" y="27" width="14" height="14" fill="#ea944e" stroke="#333" stroke-width="0.5"/><text x="1270" y="38" font-family="sans-serif" font-size="12">1025-2048</text>
<rect x="1390" y="27" width="14" height="14" fill="#cf6534" stroke="#333" stroke-width="0.5"/><text x="1410" y="38" font-family="sans-serif" font-size="12">2049-4096</text>
<rect x="1530" y="27" width="14" height="14" fill="#9f3d28" stroke="#333" stroke-width="0.5"/><text x="1550" y="38" font-family="sans-serif" font-size="12">>4096</text>
<line x1="105" y1="650" x2="105" y2="150" stroke="black" stroke-width="1.5"/>
<line x1="105" y1="650" x2="1695" y2="650" stroke="black" stroke-width="1.5"/>
<text x="28" y="400.0" font-family="sans-serif" font-size="16" transform="rotate(-90 28 400.0)">Fraction of temporal reuse (%)</text>
<line x1="105" y1="650.0" x2="1695" y2="650.0" stroke="#d0d0d0" stroke-dasharray="5,5"/>
<text x="95" y="654.0" text-anchor="end" font-family="sans-serif" font-size="12">0</text>
<line x1="105" y1="550.0" x2="1695" y2="550.0" stroke="#d0d0d0" stroke-dasharray="5,5"/>
<text x="95" y="554.0" text-anchor="end" font-family="sans-serif" font-size="12">20</text>
<line x1="105" y1="450.0" x2="1695" y2="450.0" stroke="#d0d0d0" stroke-dasharray="5,5"/>
<text x="95" y="454.0" text-anchor="end" font-family="sans-serif" font-size="12">40</text>
<line x1="105" y1="350.0" x2="1695" y2="350.0" stroke="#d0d0d0" stroke-dasharray="5,5"/>
<text x="95" y="354.0" text-anchor="end" font-family="sans-serif" font-size="12">60</text>
<line x1="105" y1="250.0" x2="1695" y2="250.0" stroke="#d0d0d0" stroke-dasharray="5,5"/>
<text x="95" y="254.0" text-anchor="end" font-family="sans-serif" font-size="12">80</text>
<line x1="105" y1="150.0" x2="1695" y2="150.0" stroke="#d0d0d0" stroke-dasharray="5,5"/>
<text x="95" y="154.0" text-anchor="end" font-family="sans-serif" font-size="12">100</text>
<rect x="137.2" y="150" width="58" height="500" fill="#fafafa" stroke="#bbb" stroke-dasharray="3,3"/><text x="166.2" y="400.0" text-anchor="middle" font-family="sans-serif" font-size="11">No temporal</text><text x="166.2" y="414.0" text-anchor="middle" font-family="sans-serif" font-size="11">reuse</text>
<text x="166.2" y="670" text-anchor="end" font-family="sans-serif" font-size="12" transform="rotate(-25 166.2 670)">vectorAdd_4M</text>
<rect x="259.5" y="150" width="58" height="500" fill="#fafafa" stroke="#bbb" stroke-dasharray="3,3"/><text x="288.5" y="400.0" text-anchor="middle" font-family="sans-serif" font-size="11">No temporal</text><text x="288.5" y="414.0" text-anchor="middle" font-family="sans-serif" font-size="11">reuse</text>
<text x="288.5" y="670" text-anchor="end" font-family="sans-serif" font-size="12" transform="rotate(-25 288.5 670)">BlackScholes</text>
<rect x="381.8" y="637.7" width="58" height="12.3" fill="#1f5a85" stroke="#333" stroke-width="0.35"/>
<rect x="381.8" y="623.0" width="58" height="14.8" fill="#2d78a8" stroke="#333" stroke-width="0.35"/>
<rect x="381.8" y="594.7" width="58" height="28.3" fill="#4d97bc" stroke="#333" stroke-width="0.35"/>
<rect x="381.8" y="557.5" width="58" height="37.2" fill="#77b3ca" stroke="#333" stroke-width="0.35"/>
<rect x="381.8" y="507.0" width="58" height="50.5" fill="#9bc9d6" stroke="#333" stroke-width="0.35"/>
<rect x="381.8" y="427.6" width="58" height="79.4" fill="#c1d9da" stroke="#333" stroke-width="0.35"/>
<rect x="381.8" y="353.8" width="58" height="73.8" fill="#eadba6" stroke="#333" stroke-width="0.35"/>
<rect x="381.8" y="266.3" width="58" height="87.6" fill="#f4be72" stroke="#333" stroke-width="0.35"/>
<rect x="381.8" y="225.2" width="58" height="41.1" fill="#ea944e" stroke="#333" stroke-width="0.35"/>
<rect x="381.8" y="150.0" width="58" height="75.2" fill="#cf6534" stroke="#333" stroke-width="0.35"/>
<rect x="381.8" y="150.0" width="58" height="0.0" fill="#9f3d28" stroke="#333" stroke-width="0.35"/>
<text x="410.8" y="141.0" text-anchor="middle" font-family="sans-serif" font-size="12">T=0.07</text>
<text x="410.8" y="670" text-anchor="end" font-family="sans-serif" font-size="12" transform="rotate(-25 410.8 670)">dwt2d</text>
<rect x="504.1" y="645.1" width="58" height="4.9" fill="#1f5a85" stroke="#333" stroke-width="0.35"/>
<rect x="504.1" y="640.9" width="58" height="4.2" fill="#2d78a8" stroke="#333" stroke-width="0.35"/>
<rect x="504.1" y="633.2" width="58" height="7.7" fill="#4d97bc" stroke="#333" stroke-width="0.35"/>
<rect x="504.1" y="618.7" width="58" height="14.5" fill="#77b3ca" stroke="#333" stroke-width="0.35"/>
<rect x="504.1" y="593.9" width="58" height="24.8" fill="#9bc9d6" stroke="#333" stroke-width="0.35"/>
<rect x="504.1" y="549.9" width="58" height="44.1" fill="#c1d9da" stroke="#333" stroke-width="0.35"/>
<rect x="504.1" y="472.0" width="58" height="77.8" fill="#eadba6" stroke="#333" stroke-width="0.35"/>
<rect x="504.1" y="346.4" width="58" height="125.7" fill="#f4be72" stroke="#333" stroke-width="0.35"/>
<rect x="504.1" y="197.7" width="58" height="148.7" fill="#ea944e" stroke="#333" stroke-width="0.35"/>
<rect x="504.1" y="150.1" width="58" height="47.7" fill="#cf6534" stroke="#333" stroke-width="0.35"/>
<rect x="504.1" y="150.0" width="58" height="0.1" fill="#9f3d28" stroke="#333" stroke-width="0.35"/>
<text x="533.1" y="141.0" text-anchor="middle" font-family="sans-serif" font-size="12">T=0.10</text>
<text x="533.1" y="670" text-anchor="end" font-family="sans-serif" font-size="12" transform="rotate(-25 533.1 670)">convolutionSeparable</text>
<rect x="626.4" y="298.9" width="58" height="351.1" fill="#1f5a85" stroke="#333" stroke-width="0.35"/>
<rect x="626.4" y="202.9" width="58" height="96.0" fill="#2d78a8" stroke="#333" stroke-width="0.35"/>
<rect x="626.4" y="150.0" width="58" height="52.9" fill="#4d97bc" stroke="#333" stroke-width="0.35"/>
<rect x="626.4" y="150.0" width="58" height="0.0" fill="#77b3ca" stroke="#333" stroke-width="0.35"/>
<rect x="626.4" y="150.0" width="58" height="0.0" fill="#9bc9d6" stroke="#333" stroke-width="0.35"/>
<rect x="626.4" y="150.0" width="58" height="0.0" fill="#c1d9da" stroke="#333" stroke-width="0.35"/>
<rect x="626.4" y="150.0" width="58" height="0.0" fill="#eadba6" stroke="#333" stroke-width="0.35"/>
<rect x="626.4" y="150.0" width="58" height="0.0" fill="#f4be72" stroke="#333" stroke-width="0.35"/>
<rect x="626.4" y="150.0" width="58" height="0.0" fill="#ea944e" stroke="#333" stroke-width="0.35"/>
<rect x="626.4" y="150.0" width="58" height="0.0" fill="#cf6534" stroke="#333" stroke-width="0.35"/>
<rect x="626.4" y="150.0" width="58" height="0.0" fill="#9f3d28" stroke="#333" stroke-width="0.35"/>
<text x="655.4" y="141.0" text-anchor="middle" font-family="sans-serif" font-size="12">T=0.10</text>
<text x="655.4" y="670" text-anchor="end" font-family="sans-serif" font-size="12" transform="rotate(-25 655.4 670)">mergeSort</text>
<rect x="748.7" y="573.6" width="58" height="76.4" fill="#1f5a85" stroke="#333" stroke-width="0.35"/>
<rect x="748.7" y="557.5" width="58" height="16.1" fill="#2d78a8" stroke="#333" stroke-width="0.35"/>
<rect x="748.7" y="549.5" width="58" height="8.0" fill="#4d97bc" stroke="#333" stroke-width="0.35"/>
<rect x="748.7" y="509.3" width="58" height="40.2" fill="#77b3ca" stroke="#333" stroke-width="0.35"/>
<rect x="748.7" y="427.0" width="58" height="82.3" fill="#9bc9d6" stroke="#333" stroke-width="0.35"/>
<rect x="748.7" y="248.5" width="58" height="178.5" fill="#c1d9da" stroke="#333" stroke-width="0.35"/>
<rect x="748.7" y="170.8" width="58" height="77.7" fill="#eadba6" stroke="#333" stroke-width="0.35"/>
<rect x="748.7" y="166.0" width="58" height="4.8" fill="#f4be72" stroke="#333" stroke-width="0.35"/>
<rect x="748.7" y="165.9" width="58" height="0.1" fill="#ea944e" stroke="#333" stroke-width="0.35"/>
<rect x="748.7" y="150.0" width="58" height="15.9" fill="#cf6534" stroke="#333" stroke-width="0.35"/>
<rect x="748.7" y="150.0" width="58" height="0.0" fill="#9f3d28" stroke="#333" stroke-width="0.35"/>
<text x="777.7" y="141.0" text-anchor="middle" font-family="sans-serif" font-size="12">T=0.12</text>
<text x="777.7" y="670" text-anchor="end" font-family="sans-serif" font-size="12" transform="rotate(-25 777.7 670)">sad</text>
<rect x="871.0" y="609.0" width="58" height="41.0" fill="#1f5a85" stroke="#333" stroke-width="0.35"/>
<rect x="871.0" y="580.3" width="58" height="28.6" fill="#2d78a8" stroke="#333" stroke-width="0.35"/>
<rect x="871.0" y="540.9" width="58" height="39.4" fill="#4d97bc" stroke="#333" stroke-width="0.35"/>
<rect x="871.0" y="493.6" width="58" height="47.3" fill="#77b3ca" stroke="#333" stroke-width="0.35"/>
<rect x="871.0" y="433.3" width="58" height="60.3" fill="#9bc9d6" stroke="#333" stroke-width="0.35"/>
<rect x="871.0" y="361.3" width="58" height="72.0" fill="#c1d9da" stroke="#333" stroke-width="0.35"/>
<rect x="871.0" y="277.7" width="58" height="83.7" fill="#eadba6" stroke="#333" stroke-width="0.35"/>
<rect x="871.0" y="197.7" width="58" height="80.0" fill="#f4be72" stroke="#333" stroke-width="0.35"/>
<rect x="871.0" y="154.7" width="58" height="43.0" fill="#ea944e" stroke="#333" stroke-width="0.35"/>
<rect x="871.0" y="150.0" width="58" height="4.7" fill="#cf6534" stroke="#333" stroke-width="0.35"/>
<rect x="871.0" y="150.0" width="58" height="0.0" fill="#9f3d28" stroke="#333" stroke-width="0.35"/>
<text x="900.0" y="141.0" text-anchor="middle" font-family="sans-serif" font-size="12">T=0.13</text>
<text x="900.0" y="670" text-anchor="end" font-family="sans-serif" font-size="12" transform="rotate(-25 900.0 670)">spmv</text>
<rect x="993.3" y="643.0" width="58" height="7.0" fill="#1f5a85" stroke="#333" stroke-width="0.35"/>
<rect x="993.3" y="540.0" width="58" height="103.0" fill="#2d78a8" stroke="#333" stroke-width="0.35"/>
<rect x="993.3" y="292.5" width="58" height="247.5" fill="#4d97bc" stroke="#333" stroke-width="0.35"/>
<rect x="993.3" y="220.2" width="58" height="72.3" fill="#77b3ca" stroke="#333" stroke-width="0.35"/>
<rect x="993.3" y="180.6" width="58" height="39.6" fill="#9bc9d6" stroke="#333" stroke-width="0.35"/>
<rect x="993.3" y="158.1" width="58" height="22.5" fill="#c1d9da" stroke="#333" stroke-width="0.35"/>
<rect x="993.3" y="150.0" width="58" height="8.1" fill="#eadba6" stroke="#333" stroke-width="0.35"/>
<rect x="993.3" y="150.0" width="58" height="0.0" fill="#f4be72" stroke="#333" stroke-width="0.35"/>
<rect x="993.3" y="150.0" width="58" height="0.0" fill="#ea944e" stroke="#333" stroke-width="0.35"/>
<rect x="993.3" y="150.0" width="58" height="0.0" fill="#cf6534" stroke="#333" stroke-width="0.35"/>
<rect x="993.3" y="150.0" width="58" height="0.0" fill="#9f3d28" stroke="#333" stroke-width="0.35"/>
<text x="1022.3" y="141.0" text-anchor="middle" font-family="sans-serif" font-size="12">T=0.16</text>
<text x="1022.3" y="670" text-anchor="end" font-family="sans-serif" font-size="12" transform="rotate(-25 1022.3 670)">transpose</text>
<rect x="1115.6" y="648.0" width="58" height="2.0" fill="#1f5a85" stroke="#333" stroke-width="0.35"/>
<rect x="1115.6" y="647.7" width="58" height="0.3" fill="#2d78a8" stroke="#333" stroke-width="0.35"/>
<rect x="1115.6" y="647.4" width="58" height="0.3" fill="#4d97bc" stroke="#333" stroke-width="0.35"/>
<rect x="1115.6" y="647.2" width="58" height="0.2" fill="#77b3ca" stroke="#333" stroke-width="0.35"/>
<rect x="1115.6" y="647.0" width="58" height="0.2" fill="#9bc9d6" stroke="#333" stroke-width="0.35"/>
<rect x="1115.6" y="646.7" width="58" height="0.3" fill="#c1d9da" stroke="#333" stroke-width="0.35"/>
<rect x="1115.6" y="641.5" width="58" height="5.2" fill="#eadba6" stroke="#333" stroke-width="0.35"/>
<rect x="1115.6" y="410.4" width="58" height="231.1" fill="#f4be72" stroke="#333" stroke-width="0.35"/>
<rect x="1115.6" y="150.0" width="58" height="260.4" fill="#ea944e" stroke="#333" stroke-width="0.35"/>
<rect x="1115.6" y="150.0" width="58" height="0.0" fill="#cf6534" stroke="#333" stroke-width="0.35"/>
<rect x="1115.6" y="150.0" width="58" height="0.0" fill="#9f3d28" stroke="#333" stroke-width="0.35"/>
<text x="1144.6" y="141.0" text-anchor="middle" font-family="sans-serif" font-size="12">T=0.16</text>
<text x="1144.6" y="670" text-anchor="end" font-family="sans-serif" font-size="12" transform="rotate(-25 1144.6 670)">scan</text>
<rect x="1237.9" y="650.0" width="58" height="0.0" fill="#1f5a85" stroke="#333" stroke-width="0.35"/>
<rect x="1237.9" y="650.0" width="58" height="0.0" fill="#2d78a8" stroke="#333" stroke-width="0.35"/>
<rect x="1237.9" y="649.9" width="58" height="0.1" fill="#4d97bc" stroke="#333" stroke-width="0.35"/>
<rect x="1237.9" y="649.4" width="58" height="0.5" fill="#77b3ca" stroke="#333" stroke-width="0.35"/>
<rect x="1237.9" y="643.8" width="58" height="5.6" fill="#9bc9d6" stroke="#333" stroke-width="0.35"/>
<rect x="1237.9" y="625.2" width="58" height="18.6" fill="#c1d9da" stroke="#333" stroke-width="0.35"/>
<rect x="1237.9" y="604.5" width="58" height="20.7" fill="#eadba6" stroke="#333" stroke-width="0.35"/>
<rect x="1237.9" y="457.2" width="58" height="147.3" fill="#f4be72" stroke="#333" stroke-width="0.35"/>
<rect x="1237.9" y="150.1" width="58" height="307.1" fill="#ea944e" stroke="#333" stroke-width="0.35"/>
<rect x="1237.9" y="150.0" width="58" height="0.1" fill="#cf6534" stroke="#333" stroke-width="0.35"/>
<rect x="1237.9" y="150.0" width="58" height="0.0" fill="#9f3d28" stroke="#333" stroke-width="0.35"/>
<text x="1266.9" y="141.0" text-anchor="middle" font-family="sans-serif" font-size="12">T=0.49</text>
<text x="1266.9" y="670" text-anchor="end" font-family="sans-serif" font-size="12" transform="rotate(-25 1266.9 670)">FWT_7_21</text>
<rect x="1360.2" y="639.5" width="58" height="10.5" fill="#1f5a85" stroke="#333" stroke-width="0.35"/>
<rect x="1360.2" y="630.1" width="58" height="9.4" fill="#2d78a8" stroke="#333" stroke-width="0.35"/>
<rect x="1360.2" y="611.7" width="58" height="18.4" fill="#4d97bc" stroke="#333" stroke-width="0.35"/>
<rect x="1360.2" y="575.7" width="58" height="36.0" fill="#77b3ca" stroke="#333" stroke-width="0.35"/>
<rect x="1360.2" y="510.2" width="58" height="65.5" fill="#9bc9d6" stroke="#333" stroke-width="0.35"/>
<rect x="1360.2" y="411.0" width="58" height="99.2" fill="#c1d9da" stroke="#333" stroke-width="0.35"/>
<rect x="1360.2" y="308.8" width="58" height="102.2" fill="#eadba6" stroke="#333" stroke-width="0.35"/>
<rect x="1360.2" y="240.0" width="58" height="68.8" fill="#f4be72" stroke="#333" stroke-width="0.35"/>
<rect x="1360.2" y="150.5" width="58" height="89.5" fill="#ea944e" stroke="#333" stroke-width="0.35"/>
<rect x="1360.2" y="150.0" width="58" height="0.5" fill="#cf6534" stroke="#333" stroke-width="0.35"/>
<rect x="1360.2" y="150.0" width="58" height="0.0" fill="#9f3d28" stroke="#333" stroke-width="0.35"/>
<text x="1389.2" y="141.0" text-anchor="middle" font-family="sans-serif" font-size="12">T=0.56</text>
<text x="1389.2" y="670" text-anchor="end" font-family="sans-serif" font-size="12" transform="rotate(-25 1389.2 670)">cfd_097k</text>
<rect x="1482.5" y="580.6" width="58" height="69.4" fill="#1f5a85" stroke="#333" stroke-width="0.35"/>
<rect x="1482.5" y="540.1" width="58" height="40.5" fill="#2d78a8" stroke="#333" stroke-width="0.35"/>
<rect x="1482.5" y="479.1" width="58" height="61.0" fill="#4d97bc" stroke="#333" stroke-width="0.35"/>
<rect x="1482.5" y="405.6" width="58" height="73.5" fill="#77b3ca" stroke="#333" stroke-width="0.35"/>
<rect x="1482.5" y="355.3" width="58" height="50.3" fill="#9bc9d6" stroke="#333" stroke-width="0.35"/>
<rect x="1482.5" y="324.6" width="58" height="30.7" fill="#c1d9da" stroke="#333" stroke-width="0.35"/>
<rect x="1482.5" y="286.6" width="58" height="38.1" fill="#eadba6" stroke="#333" stroke-width="0.35"/>
<rect x="1482.5" y="245.1" width="58" height="41.4" fill="#f4be72" stroke="#333" stroke-width="0.35"/>
<rect x="1482.5" y="184.5" width="58" height="60.6" fill="#ea944e" stroke="#333" stroke-width="0.35"/>
<rect x="1482.5" y="150.0" width="58" height="34.5" fill="#cf6534" stroke="#333" stroke-width="0.35"/>
<rect x="1482.5" y="150.0" width="58" height="0.0" fill="#9f3d28" stroke="#333" stroke-width="0.35"/>
<text x="1511.5" y="141.0" text-anchor="middle" font-family="sans-serif" font-size="12">T=0.69</text>
<text x="1511.5" y="670" text-anchor="end" font-family="sans-serif" font-size="12" transform="rotate(-25 1511.5 670)">btree</text>
<rect x="1604.8" y="647.4" width="58" height="2.6" fill="#1f5a85" stroke="#333" stroke-width="0.35"/>
<rect x="1604.8" y="645.1" width="58" height="2.3" fill="#2d78a8" stroke="#333" stroke-width="0.35"/>
<rect x="1604.8" y="640.6" width="58" height="4.4" fill="#4d97bc" stroke="#333" stroke-width="0.35"/>
<rect x="1604.8" y="631.3" width="58" height="9.3" fill="#77b3ca" stroke="#333" stroke-width="0.35"/>
<rect x="1604.8" y="593.1" width="58" height="38.3" fill="#9bc9d6" stroke="#333" stroke-width="0.35"/>
<rect x="1604.8" y="338.1" width="58" height="255.0" fill="#c1d9da" stroke="#333" stroke-width="0.35"/>
<rect x="1604.8" y="151.0" width="58" height="187.1" fill="#eadba6" stroke="#333" stroke-width="0.35"/>
<rect x="1604.8" y="150.9" width="58" height="0.1" fill="#f4be72" stroke="#333" stroke-width="0.35"/>
<rect x="1604.8" y="150.0" width="58" height="0.9" fill="#ea944e" stroke="#333" stroke-width="0.35"/>
<rect x="1604.8" y="150.0" width="58" height="0.0" fill="#cf6534" stroke="#333" stroke-width="0.35"/>
<rect x="1604.8" y="150.0" width="58" height="0.0" fill="#9f3d28" stroke="#333" stroke-width="0.35"/>
<text x="1633.8" y="141.0" text-anchor="middle" font-family="sans-serif" font-size="12">T=0.99</text>
<text x="1633.8" y="670" text-anchor="end" font-family="sans-serif" font-size="12" transform="rotate(-25 1633.8 670)">gemm</text>
<text x="227.3" y="785" text-anchor="middle" font-family="sans-serif" font-size="14">Streaming / Spatial</text>
<line x1="349.6" y1="110" x2="349.6" y2="751" stroke="#999" stroke-dasharray="4,4"/>
<text x="777.7" y="785" text-anchor="middle" font-family="sans-serif" font-size="14">Low Temporal Reuse</text>
<line x1="1205.8" y1="110" x2="1205.8" y2="751" stroke="#999" stroke-dasharray="4,4"/>
<text x="1450.4" y="785" text-anchor="middle" font-family="sans-serif" font-size="14">Reuse Rich</text>
<text x="70" y="88" font-family="sans-serif" font-size="17">(a)</text></svg>