<svg xmlns="http://www.w3.org/2000/svg" width="1500" height="900" viewBox="0 0 1500 900">
<rect width="100%" height="100%" fill="#ffffff"/>
<text x="750.0" y="38.0" font-family="DejaVu Sans,Arial,sans-serif" font-size="23" font-weight="bold" text-anchor="middle" fill="#17202A">F04. Logical tag capacity sensitivity</text>
<desc>F04. Logical tag capacity sensitivity. Deterministic Lane-E plot; source mapping is in FIGURE_INDEX.md.</desc>
<line x1="130" y1="700.0" x2="1450" y2="700.0" stroke="#D5D8DC"/>
<text x="120.0" y="704.0" font-family="DejaVu Sans,Arial,sans-serif" font-size="11" font-weight="normal" text-anchor="end" fill="#17202A">0.976</text>
<line x1="130" y1="580.0" x2="1450" y2="580.0" stroke="#D5D8DC"/>
<text x="120.0" y="584.0" font-family="DejaVu Sans,Arial,sans-serif" font-size="11" font-weight="normal" text-anchor="end" fill="#17202A">1.03</text>
<line x1="130" y1="460.0" x2="1450" y2="460.0" stroke="#D5D8DC"/>
<text x="120.0" y="464.0" font-family="DejaVu Sans,Arial,sans-serif" font-size="11" font-weight="normal" text-anchor="end" fill="#17202A">1.09</text>
<line x1="130" y1="340.0" x2="1450" y2="340.0" stroke="#D5D8DC"/>
<text x="120.0" y="344.0" font-family="DejaVu Sans,Arial,sans-serif" font-size="11" font-weight="normal" text-anchor="end" fill="#17202A">1.14</text>
<line x1="130" y1="220.0" x2="1450" y2="220.0" stroke="#D5D8DC"/>
<text x="120.0" y="224.0" font-family="DejaVu Sans,Arial,sans-serif" font-size="11" font-weight="normal" text-anchor="end" fill="#17202A">1.2</text>
<line x1="130" y1="100.0" x2="1450" y2="100.0" stroke="#D5D8DC"/>
<text x="120.0" y="104.0" font-family="DejaVu Sans,Arial,sans-serif" font-size="11" font-weight="normal" text-anchor="end" fill="#17202A">1.26</text>
<polyline points="130.0,648.2 790.0,648.2 1450.0,642.6" fill="none" stroke="#355C7D" stroke-width="3"/>
<circle cx="130.0" cy="648.2" r="4" fill="#355C7D"/>
<circle cx="790.0" cy="648.2" r="4" fill="#355C7D"/>
<circle cx="1450.0" cy="642.6" r="4" fill="#355C7D"/>
<rect x="130" y="742" width="18" height="18" fill="#355C7D"/>
<text x="155.0" y="756.0" font-family="DejaVu Sans,Arial,sans-serif" font-size="12" font-weight="normal" text-anchor="start" fill="#17202A">BICG IO</text>
<polyline points="130.0,648.2 790.0,646.0 1450.0,409.7" fill="none" stroke="#C06C84" stroke-width="3"/>
<circle cx="130.0" cy="648.2" r="4" fill="#C06C84"/>
<circle cx="790.0" cy="646.0" r="4" fill="#C06C84"/>
<circle cx="1450.0" cy="409.7" r="4" fill="#C06C84"/>
<rect x="330" y="742" width="18" height="18" fill="#C06C84"/>
<text x="355.0" y="756.0" font-family="DejaVu Sans,Arial,sans-serif" font-size="12" font-weight="normal" text-anchor="start" fill="#17202A">BICG OO</text>
<polyline points="130.0,648.2 790.0,650.0 1450.0,619.0" fill="none" stroke="#6C8EAD" stroke-width="3"/>
<circle cx="130.0" cy="648.2" r="4" fill="#6C8EAD"/>
<circle cx="790.0" cy="650.0" r="4" fill="#6C8EAD"/>
<circle cx="1450.0" cy="619.0" r="4" fill="#6C8EAD"/>
<rect x="530" y="742" width="18" height="18" fill="#6C8EAD"/>
<text x="555.0" y="756.0" font-family="DejaVu Sans,Arial,sans-serif" font-size="12" font-weight="normal" text-anchor="start" fill="#17202A">GESUMMV IO</text>
<polyline points="130.0,648.2 790.0,642.2 1450.0,150.0" fill="none" stroke="#F8B195" stroke-width="3"/>
<circle cx="130.0" cy="648.2" r="4" fill="#F8B195"/>
<circle cx="790.0" cy="642.2" r="4" fill="#F8B195"/>
<circle cx="1450.0" cy="150.0" r="4" fill="#F8B195"/>
<rect x="730" y="742" width="18" height="18" fill="#F8B195"/>
<text x="755.0" y="756.0" font-family="DejaVu Sans,Arial,sans-serif" font-size="12" font-weight="normal" text-anchor="start" fill="#17202A">GESUMMV OO</text>
<polyline points="130.0,648.2 790.0,568.9 1450.0,553.6" fill="none" stroke="#5B8E7D" stroke-width="3"/>
<circle cx="130.0" cy="648.2" r="4" fill="#5B8E7D"/>
<circle cx="790.0" cy="568.9" r="4" fill="#5B8E7D"/>
<circle cx="1450.0" cy="553.6" r="4" fill="#5B8E7D"/>
<rect x="930" y="742" width="18" height="18" fill="#5B8E7D"/>
<text x="955.0" y="756.0" font-family="DejaVu Sans,Arial,sans-serif" font-size="12" font-weight="normal" text-anchor="start" fill="#17202A">Btree IO</text>
<polyline points="130.0,648.2 790.0,365.3 1450.0,265.6" fill="none" stroke="#8D6E63" stroke-width="3"/>
<circle cx="130.0" cy="648.2" r="4" fill="#8D6E63"/>
<circle cx="790.0" cy="365.3" r="4" fill="#8D6E63"/>
<circle cx="1450.0" cy="265.6" r="4" fill="#8D6E63"/>
<rect x="1130" y="742" width="18" height="18" fill="#8D6E63"/>
<text x="1155.0" y="756.0" font-family="DejaVu Sans,Arial,sans-serif" font-size="12" font-weight="normal" text-anchor="start" fill="#17202A">Btree OO</text>
<text x="130.0" y="725.0" font-family="DejaVu Sans,Arial,sans-serif" font-size="11" font-weight="normal" text-anchor="middle" fill="#17202A">16</text>
<text x="790.0" y="725.0" font-family="DejaVu Sans,Arial,sans-serif" font-size="11" font-weight="normal" text-anchor="middle" fill="#17202A">32</text>
<text x="1450.0" y="725.0" font-family="DejaVu Sans,Arial,sans-serif" font-size="11" font-weight="normal" text-anchor="middle" fill="#17202A">64</text>
<text x="130.0" y="88.0" font-family="DejaVu Sans,Arial,sans-serif" font-size="13" font-weight="normal" text-anchor="start" fill="#17202A">Speedup vs same-mode reference</text>
<text x="750.0" y="820.0" font-family="DejaVu Sans,Arial,sans-serif" font-size="12" font-weight="normal" text-anchor="middle" fill="#566573">Same-mode normalized speedup; accepted numeric points only.</text>
</svg>
