<svg xmlns="http://www.w3.org/2000/svg" width="1700" height="800"><rect width="100%" height="100%" fill="white"/>
<rect x="245" y="27" width="14" height="14" fill="#c74c4c" stroke="#333" stroke-width="0.5"/><text x="265" y="39" font-family="sans-serif" font-size="12">SET_ASSOC</text>
<rect x="435" y="27" width="14" height="14" fill="#4f7fb8" stroke="#333" stroke-width="0.5"/><text x="455" y="39" font-family="sans-serif" font-size="12">MSHR_META</text>
<rect x="625" y="27" width="14" height="14" fill="#73a85f" stroke="#333" stroke-width="0.5"/><text x="645" y="39" font-family="sans-serif" font-size="12">MISSQ_LOWER</text>
<rect x="815" y="27" width="14" height="14" fill="#8c6baa" stroke="#333" stroke-width="0.5"/><text x="835" y="39" font-family="sans-serif" font-size="12">WB_PATH</text>
<rect x="1005" y="27" width="14" height="14" fill="#9b9b9b" stroke="#333" stroke-width="0.5"/><text x="1025" y="39" font-family="sans-serif" font-size="12">OTHER</text>
<line x1="105" y1="630" x2="105" y2="140" stroke="black" stroke-width="1.5"/>
<line x1="105" y1="630" x2="1615" y2="630" stroke="black" stroke-width="1.5"/>
<text x="28" y="420" font-family="sans-serif" font-size="16" transform="rotate(-90 28 420)">Composition of blocked cycles (%)</text>
<line x1="105" y1="630.0" x2="1615" y2="630.0" stroke="#d0d0d0" stroke-dasharray="5,5"/><text x="95" y="634.0" text-anchor="end" font-family="sans-serif" font-size="12">0</text>
<line x1="105" y1="532.0" x2="1615" y2="532.0" stroke="#d0d0d0" stroke-dasharray="5,5"/><text x="95" y="536.0" text-anchor="end" font-family="sans-serif" font-size="12">20</text>
<line x1="105" y1="434.0" x2="1615" y2="434.0" stroke="#d0d0d0" stroke-dasharray="5,5"/><text x="95" y="438.0" text-anchor="end" font-family="sans-serif" font-size="12">40</text>
<line x1="105" y1="336.0" x2="1615" y2="336.0" stroke="#d0d0d0" stroke-dasharray="5,5"/><text x="95" y="340.0" text-anchor="end" font-family="sans-serif" font-size="12">60</text>
<line x1="105" y1="238.0" x2="1615" y2="238.0" stroke="#d0d0d0" stroke-dasharray="5,5"/><text x="95" y="242.0" text-anchor="end" font-family="sans-serif" font-size="12">80</text>
<line x1="105" y1="140.0" x2="1615" y2="140.0" stroke="#d0d0d0" stroke-dasharray="5,5"/><text x="95" y="144.0" text-anchor="end" font-family="sans-serif" font-size="12">100</text>
<rect x="135.41666666666666" y="630.0" width="65" height="0.0" fill="#c74c4c" stroke="#333" stroke-width="0.35"/>
<rect x="135.41666666666666" y="630.0" width="65" height="0.0" fill="#4f7fb8" stroke="#333" stroke-width="0.35"/>
<rect x="135.41666666666666" y="630.0" width="65" height="0.0" fill="#73a85f" stroke="#333" stroke-width="0.35"/>
<rect x="135.41666666666666" y="630.0" width="65" height="0.0" fill="#8c6baa" stroke="#333" stroke-width="0.35"/>
<rect x="135.41666666666666" y="630.0" width="65" height="0.0" fill="#9b9b9b" stroke="#333" stroke-width="0.35"/>
<text x="167.91666666666666" y="650" text-anchor="end" font-family="sans-serif" font-size="12" transform="rotate(-25 167.91666666666666 650)">BlackScholes</text>
<rect x="261.25" y="630.0" width="65" height="0.0" fill="#c74c4c" stroke="#333" stroke-width="0.35"/>
<rect x="261.25" y="630.0" width="65" height="0.0" fill="#4f7fb8" stroke="#333" stroke-width="0.35"/>
<rect x="261.25" y="630.0" width="65" height="0.0" fill="#73a85f" stroke="#333" stroke-width="0.35"/>
<rect x="261.25" y="140.0" width="65" height="490.0" fill="#8c6baa" stroke="#333" stroke-width="0.35"/>
<rect x="261.25" y="140.0" width="65" height="0.0" fill="#9b9b9b" stroke="#333" stroke-width="0.35"/>
<text x="293.75" y="650" text-anchor="end" font-family="sans-serif" font-size="12" transform="rotate(-25 293.75 650)">dwt2d</text>
<rect x="387.0833333333333" y="630.0" width="65" height="0.0" fill="#c74c4c" stroke="#333" stroke-width="0.35"/>
<rect x="387.0833333333333" y="469.70213135119513" width="65" height="160.2978686488049" fill="#4f7fb8" stroke="#333" stroke-width="0.35"/>
<rect x="387.0833333333333" y="177.64749517150597" width="65" height="292.05463617968917" fill="#73a85f" stroke="#333" stroke-width="0.35"/>
<rect x="387.0833333333333" y="140.00000000000003" width="65" height="37.64749517150593" fill="#8c6baa" stroke="#333" stroke-width="0.35"/>
<rect x="387.0833333333333" y="140.00000000000003" width="65" height="0.0" fill="#9b9b9b" stroke="#333" stroke-width="0.35"/>
<text x="419.5833333333333" y="650" text-anchor="end" font-family="sans-serif" font-size="12" transform="rotate(-25 419.5833333333333 650)">convolutionSeparable</text>
<rect x="512.9166666666666" y="630.0" width="65" height="0.0" fill="#c74c4c" stroke="#333" stroke-width="0.35"/>
<rect x="512.9166666666666" y="630.0" width="65" height="0.0" fill="#4f7fb8" stroke="#333" stroke-width="0.35"/>
<rect x="512.9166666666666" y="630.0" width="65" height="0.0" fill="#73a85f" stroke="#333" stroke-width="0.35"/>
<rect x="512.9166666666666" y="630.0" width="65" height="0.0" fill="#8c6baa" stroke="#333" stroke-width="0.35"/>
<rect x="512.9166666666666" y="630.0" width="65" height="0.0" fill="#9b9b9b" stroke="#333" stroke-width="0.35"/>
<text x="545.4166666666666" y="650" text-anchor="end" font-family="sans-serif" font-size="12" transform="rotate(-25 545.4166666666666 650)">mergeSort</text>
<rect x="638.75" y="630.0" width="65" height="0.0" fill="#c74c4c" stroke="#333" stroke-width="0.35"/>
<rect x="638.75" y="630.0" width="65" height="0.0" fill="#4f7fb8" stroke="#333" stroke-width="0.35"/>
<rect x="638.75" y="630.0" width="65" height="0.0" fill="#73a85f" stroke="#333" stroke-width="0.35"/>
<rect x="638.75" y="630.0" width="65" height="0.0" fill="#8c6baa" stroke="#333" stroke-width="0.35"/>
<rect x="638.75" y="630.0" width="65" height="0.0" fill="#9b9b9b" stroke="#333" stroke-width="0.35"/>
<text x="671.25" y="650" text-anchor="end" font-family="sans-serif" font-size="12" transform="rotate(-25 671.25 650)">sad</text>
<rect x="764.5833333333333" y="630.0" width="65" height="0.0" fill="#c74c4c" stroke="#333" stroke-width="0.35"/>
<rect x="764.5833333333333" y="596.6586894513185" width="65" height="33.34131054868149" fill="#4f7fb8" stroke="#333" stroke-width="0.35"/>
<rect x="764.5833333333333" y="140.00000000000006" width="65" height="456.6586894513185" fill="#73a85f" stroke="#333" stroke-width="0.35"/>
<rect x="764.5833333333333" y="140.00000000000006" width="65" height="0.0" fill="#8c6baa" stroke="#333" stroke-width="0.35"/>
<rect x="764.5833333333333" y="140.00000000000006" width="65" height="0.0" fill="#9b9b9b" stroke="#333" stroke-width="0.35"/>
<text x="797.0833333333333" y="650" text-anchor="end" font-family="sans-serif" font-size="12" transform="rotate(-25 797.0833333333333 650)">spmv</text>
<rect x="890.4166666666666" y="630.0" width="65" height="0.0" fill="#c74c4c" stroke="#333" stroke-width="0.35"/>
<rect x="890.4166666666666" y="630.0" width="65" height="0.0" fill="#4f7fb8" stroke="#333" stroke-width="0.35"/>
<rect x="890.4166666666666" y="630.0" width="65" height="0.0" fill="#73a85f" stroke="#333" stroke-width="0.35"/>
<rect x="890.4166666666666" y="630.0" width="65" height="0.0" fill="#8c6baa" stroke="#333" stroke-width="0.35"/>
<rect x="890.4166666666666" y="630.0" width="65" height="0.0" fill="#9b9b9b" stroke="#333" stroke-width="0.35"/>
<text x="922.9166666666666" y="650" text-anchor="end" font-family="sans-serif" font-size="12" transform="rotate(-25 922.9166666666666 650)">transpose</text>
<rect x="1016.25" y="628.4556999099291" width="65" height="1.5443000900709527" fill="#c74c4c" stroke="#333" stroke-width="0.35"/>
<rect x="1016.25" y="628.4555679404336" width="65" height="0.00013196949545666307" fill="#4f7fb8" stroke="#333" stroke-width="0.35"/>
<rect x="1016.25" y="195.6154460499489" width="65" height="432.84012189048474" fill="#73a85f" stroke="#333" stroke-width="0.35"/>
<rect x="1016.25" y="140.5661074609316" width="65" height="55.04933858901731" fill="#8c6baa" stroke="#333" stroke-width="0.35"/>
<rect x="1016.25" y="140.00000000000003" width="65" height="0.5661074609315719" fill="#9b9b9b" stroke="#333" stroke-width="0.35"/>
<text x="1048.75" y="650" text-anchor="end" font-family="sans-serif" font-size="12" transform="rotate(-25 1048.75 650)">scan</text>
<rect x="1142.0833333333333" y="630.0" width="65" height="0.0" fill="#c74c4c" stroke="#333" stroke-width="0.35"/>
<rect x="1142.0833333333333" y="630.0" width="65" height="0.0" fill="#4f7fb8" stroke="#333" stroke-width="0.35"/>
<rect x="1142.0833333333333" y="261.52336701614735" width="65" height="368.47663298385265" fill="#73a85f" stroke="#333" stroke-width="0.35"/>
<rect x="1142.0833333333333" y="139.99999999999997" width="65" height="121.52336701614738" fill="#8c6baa" stroke="#333" stroke-width="0.35"/>
<rect x="1142.0833333333333" y="139.99999999999997" width="65" height="0.0" fill="#9b9b9b" stroke="#333" stroke-width="0.35"/>
<text x="1174.5833333333333" y="650" text-anchor="end" font-family="sans-serif" font-size="12" transform="rotate(-25 1174.5833333333333 650)">FWT_7_21</text>
<rect x="1267.9166666666665" y="630.0" width="65" height="0.0" fill="#c74c4c" stroke="#333" stroke-width="0.35"/>
<rect x="1267.9166666666665" y="630.0" width="65" height="0.0" fill="#4f7fb8" stroke="#333" stroke-width="0.35"/>
<rect x="1267.9166666666665" y="630.0" width="65" height="0.0" fill="#73a85f" stroke="#333" stroke-width="0.35"/>
<rect x="1267.9166666666665" y="140.0" width="65" height="490.0" fill="#8c6baa" stroke="#333" stroke-width="0.35"/>
<rect x="1267.9166666666665" y="140.0" width="65" height="0.0" fill="#9b9b9b" stroke="#333" stroke-width="0.35"/>
<text x="1300.4166666666665" y="650" text-anchor="end" font-family="sans-serif" font-size="12" transform="rotate(-25 1300.4166666666665 650)">cfd_097k</text>
<rect x="1393.75" y="630.0" width="65" height="0.0" fill="#c74c4c" stroke="#333" stroke-width="0.35"/>
<rect x="1393.75" y="140.0" width="65" height="490.0" fill="#4f7fb8" stroke="#333" stroke-width="0.35"/>
<rect x="1393.75" y="140.0" width="65" height="0.0" fill="#73a85f" stroke="#333" stroke-width="0.35"/>
<rect x="1393.75" y="140.0" width="65" height="0.0" fill="#8c6baa" stroke="#333" stroke-width="0.35"/>
<rect x="1393.75" y="140.0" width="65" height="0.0" fill="#9b9b9b" stroke="#333" stroke-width="0.35"/>
<text x="1426.25" y="650" text-anchor="end" font-family="sans-serif" font-size="12" transform="rotate(-25 1426.25 650)">btree</text>
<rect x="1519.5833333333333" y="630.0" width="65" height="0.0" fill="#c74c4c" stroke="#333" stroke-width="0.35"/>
<rect x="1519.5833333333333" y="630.0" width="65" height="0.0" fill="#4f7fb8" stroke="#333" stroke-width="0.35"/>
<rect x="1519.5833333333333" y="630.0" width="65" height="0.0" fill="#73a85f" stroke="#333" stroke-width="0.35"/>
<rect x="1519.5833333333333" y="630.0" width="65" height="0.0" fill="#8c6baa" stroke="#333" stroke-width="0.35"/>
<rect x="1519.5833333333333" y="630.0" width="65" height="0.0" fill="#9b9b9b" stroke="#333" stroke-width="0.35"/>
<text x="1552.0833333333333" y="650" text-anchor="end" font-family="sans-serif" font-size="12" transform="rotate(-25 1552.0833333333333 650)">gemm</text>
<text x="167.91666666666666" y="760" text-anchor="middle" font-family="sans-serif" font-size="14">Streaming / Spatial</text>
<line x1="230.83333333333331" y1="110" x2="230.83333333333331" y2="725" stroke="#999" stroke-dasharray="4,4"/>
<text x="671.25" y="760" text-anchor="middle" font-family="sans-serif" font-size="14">Low Temporal Reuse</text>
<line x1="1111.6666666666665" y1="110" x2="1111.6666666666665" y2="725" stroke="#999" stroke-dasharray="4,4"/>
<text x="1363.3333333333333" y="760" text-anchor="middle" font-family="sans-serif" font-size="14">Reuse Rich</text>
</svg>